<svg width="1171" height="324" viewBox="0 0 1171 324" fill="none" xmlns="http://www.w3.org/2000/svg">
<g filter="url(#filter0_d)">
<path fill-rule="evenodd" clip-rule="evenodd" d="M78.0727 39.6344L54.7666 63.1173V138.905V214.692L84.3031 244.24C100.548 260.492 113.84 274.417 113.84 275.186C113.84 275.966 113.025 276.582 111.994 276.582C110.763 276.582 110.147 277.199 110.147 278.43C110.147 279.483 109.532 280.278 108.719 280.278C107.932 280.278 104.411 283.2 100.893 286.772L94.4969 293.264L69.0936 267.832L43.6904 242.401V158.77C43.6904 112.773 43.4791 75.1392 43.2215 75.1392C42.9631 75.1392 36.7328 81.1649 29.3763 88.5306L16 101.921V170.312V238.703L49.6873 272.427L83.3736 306.152H119.378H155.382L188.145 273.351C206.166 255.311 220.909 240.128 220.909 239.612C220.909 239.095 216.969 234.727 212.153 229.906L203.396 221.139H169.22H135.045L126.288 229.906C121.472 234.727 117.532 238.886 117.532 239.146C117.532 239.407 124.593 239.62 133.223 239.62C141.853 239.62 148.914 239.832 148.914 240.091C148.914 241.001 123.998 265.494 123.072 265.494C122.556 265.494 114.038 257.388 104.142 247.48L86.1491 229.468V142.343C86.1491 56.2784 87.9951 53.886 87.9951 53.886L97.2253 44.6455C99.698 42.1044 102.17 40.0253 102.718 40.0253C103.267 40.0253 106.825 43.1375 110.624 46.9409L117.532 53.8565V131.029C117.532 199.302 117.692 208.202 118.928 208.202C119.696 208.202 124.265 204.258 129.081 199.436L137.838 190.67V133.351V76.0318L157.221 56.6582L176.605 37.2846V26.6423C176.605 20.7893 176.388 16 176.123 16C175.857 16 169.013 22.6531 160.913 30.7848C152.814 38.9164 145.646 45.5696 144.985 45.5696C144.324 45.5696 143.185 46.4012 142.453 47.4177C141.721 48.4341 140.579 49.2658 139.915 49.2658C139.25 49.2658 133.747 44.2759 127.685 38.1772C121.622 32.0785 116.213 27.0886 115.662 27.0886C115.111 27.0886 112.214 24.5936 109.224 21.5443C106.235 18.4949 103.246 16.0342 102.583 16.0757C101.921 16.1173 90.8906 26.718 78.0727 39.6344ZM176.835 47.9527L145.222 79.753V146.749V213.747H156.298H167.374V162.924C167.374 134.971 167.586 112.101 167.844 112.101C168.103 112.101 173.918 117.711 180.766 124.568L193.219 137.034V168.475V199.917L213.525 220.215L233.831 240.514V273.333V306.152H245.435C255.042 306.152 257.304 305.887 258.579 304.609C258.579 286.5 258.5 275.5 258.982 268.829C260.495 267.313 260.913 267.57 267.006 273.755C270.54 277.343 273.875 280.278 274.416 280.278C274.958 280.278 278.094 277.583 281.384 274.29L287.366 268.3V218.38V168.46L262.911 143.976C249.46 130.511 238.245 119.494 237.99 119.494C237.733 119.494 237.523 127.605 237.523 137.519V155.545L222.3 170.785C213.928 179.167 206.867 186.025 206.609 186.025C206.351 186.025 206.141 161.492 206.141 131.506V76.9873H194.142C187.542 76.9873 182.143 76.7748 182.143 76.5151C182.143 76.2545 195.434 62.7449 211.679 46.4936C227.924 30.2423 241.216 16.7328 241.216 16.4722C241.216 16.2125 233.843 16.0342 224.832 16.0757L208.449 16.1515L176.835 47.9527ZM528.504 22.9876L521.812 29.833V53.4102V76.9873H500.108H478.404L470.572 84.8288C466.264 89.1413 462.739 93.1074 462.739 93.6424C462.739 94.1774 466.477 98.3255 471.046 102.861L479.353 111.106V192.465V273.823L495.5 289.987L511.646 306.152H536.59H561.536L567.531 300.15L573.527 294.148L561.045 281.653L548.563 269.157L536.597 281.186C530.016 287.802 524.193 293.215 523.659 293.215C523.124 293.215 520.828 291.355 518.557 289.081L514.428 284.948V214.668V144.389L525.504 133.354L536.58 122.32V110.214C536.58 100.954 536.89 97.7979 537.899 96.7888C538.907 95.7788 542.058 95.4683 551.292 95.4683H563.367L573.972 84.8519L584.577 74.2346V64.5228V54.8101H560.579H536.58V35.405C536.58 24.7323 536.269 16.0323 535.888 16.0711C535.507 16.1109 532.184 19.223 528.504 22.9876ZM570.028 99.7125L523.634 146.311L537.491 160.14C551.198 173.819 551.348 174.014 551.348 178.072C551.348 192.281 551.348 207.82 551.348 222.607V260.883L573.958 283.517L596.567 306.152H621.499H646.432L662.586 289.979L678.742 273.805L669.052 264.106C663.095 258.142 658.639 254.405 657.484 254.405C656.291 254.405 650.566 259.466 641.804 268.266C634.213 275.889 627.568 282.127 627.038 282.127C626.508 282.127 619.03 275.058 610.421 266.418C601.812 257.778 594.553 250.709 594.288 250.709C594.024 250.709 593.807 256.53 593.807 263.646C593.807 270.761 593.596 276.582 593.337 276.582C593.079 276.582 587.264 270.972 580.415 264.116L567.963 251.65V232.698V213.747H624.267H680.57V165.21V116.673L676.25 112.347C673.76 109.855 671.772 108.495 671.558 109.138L661.187 119.494C660.59 119.494 660.264 130.582 660.264 150.911V182.329H622.421H584.577V148.595V114.861L601.646 97.772C611.035 88.3735 619.158 80.6835 619.697 80.6835C620.236 80.6835 623.138 83.1942 626.147 86.262L631.616 91.8414L637.646 85.8046L643.675 79.7687L630.286 66.3653C622.923 58.9933 616.791 52.9962 616.659 53.0378C616.528 53.0803 595.544 74.084 570.028 99.7125ZM223.909 65.5004L213.525 76.0448V121.795C213.525 146.956 213.739 167.544 214.001 167.544C215.175 167.544 228.293 153.564 228.293 152.312C228.293 151.542 228.709 150.911 229.216 150.911C229.809 150.911 230.139 141.979 230.139 125.962C230.139 112.24 230.36 101.013 230.63 101.013C230.9 101.013 235.664 105.587 241.216 111.177C246.767 116.768 251.745 121.342 252.277 121.342C252.809 121.342 262.788 111.773 274.454 100.078L295.663 78.816L317.36 100.536L339.055 122.256V152.785V183.315L335.855 186.518C334.096 188.28 332.213 189.721 331.672 189.721C331.132 189.721 326.147 194.296 320.595 199.886C315.043 205.477 310.052 210.051 309.504 210.051C308.956 210.051 305.639 207.14 302.135 203.582C298.63 200.025 295.535 197.114 295.256 197.114C294.978 197.114 294.75 213.964 294.75 234.558V272.002L289.694 277.065C286.913 279.849 284.058 284 283.5 284C278.496 284 272.784 283.975 267.983 283.975C267.419 283.975 267.06 288.287 267.06 295.063V306.152H287.845H308.63L314.658 300.117L320.686 294.082L316.948 290.486C314.892 288.51 313.211 286.429 313.211 285.863C313.211 285.297 317.364 280.705 322.441 275.658L331.671 266.482V241.963C331.671 228.477 331.888 217.443 332.153 217.443C332.419 217.443 339.269 224.103 347.377 232.244L362.119 247.043L372.74 236.411C378.58 230.564 383.36 225.345 383.36 224.813C383.36 224.282 379.206 219.718 374.13 214.671L364.9 205.495V154.635V103.776L340.444 79.2928L315.988 54.8101L275.141 54.8831L234.293 54.957L223.909 65.5004ZM360.515 65.5004C354.805 71.2998 350.131 76.4763 350.131 77.0049C350.131 77.5334 355.116 82.9308 361.207 89L372.284 100.034V150.895V201.755L401.828 231.312L431.373 260.87L415.202 277.059L399.031 293.249L387.991 282.143C381.921 276.035 376.518 271.038 375.985 271.038C375.453 271.038 367.141 263.137 357.515 253.481C347.889 243.825 339.797 235.924 339.534 235.924C339.271 235.924 339.055 243.634 339.055 253.059V270.193L331.671 277.506C327.61 281.529 324.287 285.258 324.287 285.794C324.287 286.33 328.643 291.13 333.967 296.46L343.649 306.152H390.739H437.83L454.9 289.063L471.969 271.974C471.969 251.754 470.123 231.597 470.123 211.424V198.011L462.29 190.171L454.459 182.329H431.357H408.257L399.501 173.563L390.744 164.796V124.111V83.4261L397.652 76.5105C401.451 72.7071 404.985 69.5949 405.507 69.5949C406.027 69.5949 411.641 74.789 417.982 81.1363L429.511 92.6777V119.495V146.311L440.115 156.928C445.949 162.767 450.933 167.544 451.191 167.544C451.451 167.544 451.663 150.686 451.663 130.08V92.6167L459.047 85.3037C463.108 81.2814 466.431 77.5528 466.431 77.0169C466.431 76.4819 461.659 71.2665 455.827 65.4265L445.221 54.8101L408.061 54.8831L370.899 54.957L360.515 65.5004ZM647.342 87.1519C642.631 91.9147 611.344 123.19 611.344 123.19C610.751 123.19 610.421 132.43 610.421 149.063V174.937H623.344H636.266C636.266 136.505 636.266 158.795 636.266 136.505C636.266 133.633 637.84 131.767 653.335 116.253C662.724 106.854 670.829 99.1645 671.348 99.1645C671.866 99.1645 675.814 102.693 680.122 107.006L687.955 114.847V197.108V279.369L702.254 293.685C710.119 301.558 716.765 308 717.022 308C717.28 308 717.491 267.039 717.491 216.975V125.952L737.33 106.089C748.242 95.1652 757.38 86.2278 757.637 86.2278C757.893 86.2278 758.104 103.912 758.104 125.527V164.827L747.028 175.861L735.951 186.895V231.283V275.672L751.175 290.911L766.397 306.152H776.096H785.794V289.949V273.745L776.564 264.57L767.334 255.394V222.996V190.598L780.256 177.709L793.178 164.819V109.814V54.8101H774.24H755.301L736.874 73.2911C726.74 83.4557 718.232 91.7721 717.969 91.7721C717.706 91.7721 717.491 83.4557 717.491 73.2911V54.8101L698.339 54.884L679.186 54.957L647.342 87.1519ZM820.176 72.8984L802.408 90.837V107.937C802.408 117.342 802.657 125.038 802.961 125.038C802.961 125.038 827.801 102.367 834.663 95.4683C839.636 95.4683 872.558 94.8646 872.558 94.8646C872.558 94.8646 819.527 149.477 812.097 156.915L774.718 194.336V223.447C774.718 242.237 775.045 252.557 775.641 252.557C778.5 255.5 803.316 280.259 806.1 283.051C820.996 297.98 829.808 306.152 831.012 306.152C832.232 306.152 845.125 293.887 868.407 270.579L903.94 235.006V162.921V90.8361L885.947 72.8235L867.954 54.8101L852.949 54.8849L837.944 54.9598L820.176 72.8984ZM898.402 64.557V74.3048L904.863 80.6835L911.324 87.0622V162.897V238.731L893.787 256.253L876.25 273.775V289.963V306.152H885.946H895.643L917.328 284.441L939.015 262.732V235.671C939.015 209.671 939 210 937.169 207.278L926.5 191C926.5 191 926.092 190.101 926.092 140.543C926.092 96.0699 926.261 89.924 927.482 89.924C928.248 89.924 936.97 98.0298 946.866 107.937L964.859 125.95V186.976V248.001L955.629 257.177L946.399 266.353V286.252V306.152H953.328H960.257L976.403 289.987L992.549 273.823V213.721V153.619L983.319 144.443C978.243 139.396 974.089 134.828 974.089 134.293C974.089 133.757 981.981 125.434 991.626 115.797L1009.16 98.2756V85.3065V72.3375C1006.01 69.1825 992.5 54.8101 992.5 54.8101C992.5 54.8101 991.934 54.8101 978.704 54.8101H964.859V73.2911C964.859 89.2005 964.664 91.7721 963.458 91.7721C962.687 91.7721 953.764 83.4557 943.63 73.2911L925.203 54.8101H911.802H898.402V64.557ZM1061.78 58.5063C1060 60.4921 1058.02 62.1369 1057.39 62.16C1055.98 62.2117 985.165 132.954 985.165 134.311C985.165 134.84 988.903 138.984 993.472 143.519L1001.78 151.764V212.794V273.823L1017.93 289.987L1034.07 306.152H1059.94H1085.8L1111.62 280.278C1125.82 266.048 1137.87 254.405 1138.39 254.405C1138.91 254.405 1142.86 250.876 1147.17 246.564L1155 238.723V189.726V140.73L1142.55 128.264C1135.7 121.407 1129.88 115.797 1129.63 115.797C1129.37 115.797 1129.16 130.351 1129.16 148.139C1129.16 178.943 1129.16 240.5 1129.16 240.5L1101.01 266.883C1086.54 281.366 1074.28 293.215 1073.77 293.215C1073.26 293.215 1067.64 288.017 1061.3 281.664L1049.76 270.114L1083.92 235.933L1118.08 201.753V153.688V105.625L1092.7 80.2169C1078.74 66.2434 1066.8 54.8295 1066.16 54.8526C1065.53 54.8757 1063.55 56.5205 1061.78 58.5063ZM1079.78 93.148L1090.39 103.765V147.209V190.653L1060.38 220.695L1030.37 250.737L1026.23 246.588L1022.09 242.441V215.157V187.873H1034.56H1047.03L1056.71 178.182C1062.03 172.851 1066.39 168.277 1066.39 168.017H1047.93V134.731V103.766L1058.31 93.222C1064.03 87.4235 1068.81 82.6452 1068.94 82.6046C1069.07 82.5649 1073.95 87.3089 1079.78 93.148ZM876.25 163.391V205.439L851.794 229.922C838.343 243.388 826.917 254.405 826.403 254.405C825.888 254.405 819.864 248.795 813.015 241.939L800.562 229.472V211.903V194.334L829.634 165.23C835.6 159.258 875.557 121.403 875.557 121.403C875.938 121.369 876.25 140.264 876.25 163.391ZM610.421 238.247V255.356L618.254 263.196C622.562 267.509 626.511 271.038 627.032 271.038C628.284 271.038 651.034 248.235 651.034 246.979C651.034 245.702 645.507 241.468 645.507 241.468C645.507 241.468 638.112 235.079 638.112 232.798C638.112 231.102 637.517 223.184 636.943 222.609C635.745 221.41 633.17 221.139 622.948 221.139H610.421V238.247ZM179.604 292.819C172.877 299.635 167.374 305.423 167.374 305.682C167.374 305.94 173.189 306.152 180.297 306.152H193.219V293.215C193.219 286.1 192.908 280.312 192.527 280.352C192.145 280.393 186.331 286.003 179.604 292.819Z" fill="#414141"/>
</g>
<defs>
<filter id="filter0_d" x="0" y="0" width="1171" height="324" filterUnits="userSpaceOnUse" color-interpolation-filters="sRGB">
<feFlood flood-opacity="0" result="BackgroundImageFix"/>
<feColorMatrix in="SourceAlpha" type="matrix" values="0 0 0 0 0 0 0 0 0 0 0 0 0 0 0 0 0 0 127 0"/>
<feOffset/>
<feGaussianBlur stdDeviation="8"/>
<feColorMatrix type="matrix" values="0 0 0 0 0.254902 0 0 0 0 0.254902 0 0 0 0 0.254902 0 0 0 1 0"/>
<feBlend mode="normal" in2="BackgroundImageFix" result="effect1_dropShadow"/>
<feBlend mode="normal" in="SourceGraphic" in2="effect1_dropShadow" result="shape"/>
</filter>
</defs>
</svg>
